<svg id="visual" viewBox="0 0 900 600" width="900" height="600" xmlns="http://www.w3.org/2000/svg" xmlnsXlink="http://www.w3.org/1999/xlink" version="1.1"><rect x="0" y="0" width="900" height="600" fill="#370c4f"></rect><path d="M0 408L56 340L113 344L169 371L225 366L281 364L338 378L394 348L450 354L506 342L563 435L619 350L675 356L731 412L788 431L844 367L900 440L900 601L844 601L788 601L731 601L675 601L619 601L563 601L506 601L450 601L394 601L338 601L281 601L225 601L169 601L113 601L56 601L0 601Z" fill="#6600ff"></path><path d="M0 360L56 404L113 447L169 397L225 361L281 367L338 376L394 396L450 409L506 397L563 363L619 455L675 364L731 444L788 377L844 423L900 455L900 601L844 601L788 601L731 601L675 601L619 601L563 601L506 601L450 601L394 601L338 601L281 601L225 601L169 601L113 601L56 601L0 601Z" fill="#672efd"></path><path d="M0 429L56 433L113 465L169 442L225 414L281 463L338 453L394 426L450 437L506 435L563 399L619 388L675 398L731 405L788 437L844 416L900 388L900 601L844 601L788 601L731 601L675 601L619 601L563 601L506 601L450 601L394 601L338 601L281 601L225 601L169 601L113 601L56 601L0 601Z" fill="#6a44f9"></path><path d="M0 470L56 428L113 413L169 408L225 484L281 444L338 435L394 431L450 438L506 466L563 475L619 416L675 454L731 427L788 486L844 479L900 460L900 601L844 601L788 601L731 601L675 601L619 601L563 601L506 601L450 601L394 601L338 601L281 601L225 601L169 601L113 601L56 601L0 601Z" fill="#6e54f5"></path><path d="M0 485L56 476L113 496L169 453L225 433L281 497L338 495L394 465L450 503L506 502L563 503L619 439L675 452L731 458L788 434L844 468L900 480L900 601L844 601L788 601L731 601L675 601L619 601L563 601L506 601L450 601L394 601L338 601L281 601L225 601L169 601L113 601L56 601L0 601Z" fill="#715df2"></path><path d="M0 521L56 494L113 481L169 504L225 466L281 477L338 477L394 491L450 513L506 496L563 475L619 486L675 517L731 507L788 509L844 521L900 487L900 601L844 601L788 601L731 601L675 601L619 601L563 601L506 601L450 601L394 601L338 601L281 601L225 601L169 601L113 601L56 601L0 601Z" fill="#715df2"></path><path d="M0 524L56 521L113 482L169 485L225 527L281 512L338 510L394 522L450 488L506 531L563 527L619 517L675 502L731 503L788 521L844 530L900 514L900 601L844 601L788 601L731 601L675 601L619 601L563 601L506 601L450 601L394 601L338 601L281 601L225 601L169 601L113 601L56 601L0 601Z" fill="#6e54f5"></path><path d="M0 520L56 547L113 541L169 514L225 511L281 532L338 522L394 513L450 551L506 520L563 545L619 533L675 534L731 539L788 526L844 533L900 517L900 601L844 601L788 601L731 601L675 601L619 601L563 601L506 601L450 601L394 601L338 601L281 601L225 601L169 601L113 601L56 601L0 601Z" fill="#6a44f9"></path><path d="M0 558L56 554L113 561L169 539L225 533L281 546L338 555L394 567L450 556L506 556L563 572L619 569L675 571L731 542L788 552L844 539L900 570L900 601L844 601L788 601L731 601L675 601L619 601L563 601L506 601L450 601L394 601L338 601L281 601L225 601L169 601L113 601L56 601L0 601Z" fill="#672efd"></path><path d="M0 557L56 578L113 580L169 578L225 586L281 561L338 567L394 574L450 564L506 579L563 583L619 584L675 574L731 558L788 560L844 582L900 566L900 601L844 601L788 601L731 601L675 601L619 601L563 601L506 601L450 601L394 601L338 601L281 601L225 601L169 601L113 601L56 601L0 601Z" fill="#6600ff"></path></svg>